<?xml version="1.0" encoding="utf-8"?><svg xml:space="preserve" viewBox="0 0 100 100" y="0" x="0" xmlns="http://www.w3.org/2000/svg" id="Layer_1" version="1.1" width="200px" height="200px" xmlns:xlink="http://www.w3.org/1999/xlink" style="width:100%;height:100%;background-size:initial;background-repeat-y:initial;background-repeat-x:initial;background-position-y:initial;background-position-x:initial;background-origin:initial;background-image:initial;background-color:rgb(241, 242, 243);background-clip:initial;background-attachment:initial;animation-play-state:paused" ><g class="ldl-scale" style="transform-origin:50% 50%;transform:rotate(0deg) scale(0.8, 0.8);animation-play-state:paused" ><path fill="#e0e0e0" d="M76.1 83.2c-2.4 0-4.9-.4-7.6-1.1-4.6-1.3-9.7-1.4-15.3-.4-3.6.7-7.3 1-11 1-25.4 0-34.5-14.9-34.5-28.9s9.1-28.9 34.5-28.9c6.6 0 12.8 1 18.7 2.9 4.8 1.6 9.7 4.8 15 9.6 2.8 2.6 5.3 5.3 7.4 7.9 3.2 4.1 5.6 8.5 7.2 12.9 2.9 8.2 2.1 15.6-2.3 20.2-2.9 3.2-7.1 4.8-12.1 4.8zm-15.7-6.7c3.3 0 6.4.4 9.4 1.2 6.6 1.8 12.1 1 15.2-2.3 4.5-4.8 2.4-12.6 1.3-15.7-1.4-4-3.6-7.9-6.5-11.7-1.9-2.5-4.2-5-6.9-7.4-4.8-4.4-9.2-7.3-13.4-8.7-5.4-1.8-11.2-2.7-17.2-2.7-18.8 0-30 9.1-30 24.5s11.2 24.5 30 24.5c3.5 0 6.9-.3 10.2-.9 2.7-.5 5.3-.8 7.9-.8z" style="fill:rgb(223, 19, 23);animation-play-state:paused" ></path>
<path stroke-miterlimit="10" stroke-width="4.449" stroke="#f4e6c8" fill="#e15c64" d="M81.6 42.7C79.5 40 77 37.4 74.5 35c-4.1-3.8-8.9-7.4-14.2-9.2-5.8-1.9-11.9-2.8-17.9-2.8C20.1 23.1 10 35 10 49.7s10.1 26.7 32.3 26.7c3.7 0 7.2-.3 10.6-1 5.4-1 11-1 16.3.4 7.1 2 13.6 1.2 17.5-2.9 4.6-4.8 3.9-12.2 1.8-18-1.7-4.4-4-8.5-6.9-12.2z" style="stroke:rgb(228, 147, 75);fill:rgb(226, 187, 139);animation-play-state:paused" ></path>
<ellipse fill="#e0e0e0" ry="6.5" rx="7.8" cy="57.7" cx="66.7" style="fill:rgb(223, 19, 23);animation-play-state:paused" ></ellipse>
<metadata xmlns:d="https://loading.io/stock/" style="animation-play-state:paused" ><d:name style="animation-play-state:paused" >meat</d:name>


<d:tags style="animation-play-state:paused" >meat,steak,beef,sirloin,rib eye steak,tenderloin,shank,flank</d:tags>


<d:license style="animation-play-state:paused" >by</d:license>


<d:slug style="animation-play-state:paused" >ji9fvj</d:slug></metadata></g><!-- generated by https://loading.io/ --></svg>